<svg xmlns="http://www.w3.org/2000/svg" width="60" height="60" viewBox="0 0 60 60"><path d="M49.8 9.1H9.3c-2.2 0-4 1.8-4 4v26.4c0 2.2 1.8 4 4 4h13.1c0 0 0.6 0.6 0.2 1.5 -0.7 1.6-2.6 4-2.6 4 -0.3 0.6-0.2 1.2 0.1 1.7 0.3 0.5 0.9 0.8 1.5 0.8H37.6c0 0 0 0 0 0 1 0 1.8-0.8 1.8-1.8 0-0.3-0.1-0.6-0.2-0.8 0 0-1.7-2.4-2.3-3.8 -0.6-1.2-0.1-1.6-0.1-1.6h13c2.2 0 4-1.8 4-4V13.1C53.9 10.9 52.1 9.1 49.8 9.1zM51.6 40.4c0 0.2-0.2 0.4-0.4 0.4H8c-0.2 0-0.4-0.2-0.4-0.4V12.2c0-0.2 0.2-0.4 0.4-0.4h43.3c0.2 0 0.4 0.2 0.4 0.4V40.4z" fill="#777777"/><path d="M17.3 20.5c-1.4 0-2.5 0.5-3.4 1.4s-1.3 2.1-1.3 3.5v2.3c0 1.4 0.4 2.6 1.3 3.5 0.9 0.9 2 1.4 3.4 1.4 1.4 0 2.5-0.4 3.3-1.1 0.8-0.7 1.2-1.7 1.2-3l0 0h-2.3c0 0.8-0.2 1.4-0.5 1.8 -0.4 0.4-0.9 0.6-1.6 0.6 -0.7 0-1.3-0.3-1.8-0.9 -0.4-0.6-0.7-1.3-0.7-2.2v-2.3c0-0.9 0.2-1.6 0.6-2.2 0.4-0.6 1-0.9 1.7-0.9 0.8 0 1.4 0.2 1.7 0.6 0.4 0.4 0.6 1 0.6 1.8h2.3l0 0c0-1.3-0.4-2.3-1.2-3C19.9 20.9 18.7 20.5 17.3 20.5zM29.7 29.3h0l-3-8.6h-3.1v11.7h2.4v-3.5l-0.2-5.1 0 0 3.1 8.7h1.6l3.1-8.7 0 0 -0.2 5.2v3.5h2.4V20.7h-3.1L29.7 29.3zM45.6 27c-0.7-0.6-1.6-1.1-2.9-1.4 -0.9-0.3-1.5-0.6-1.9-0.8 -0.4-0.3-0.6-0.6-0.6-1 0-0.4 0.2-0.8 0.5-1.1 0.3-0.3 0.8-0.4 1.5-0.4 0.7 0 1.2 0.2 1.5 0.5 0.4 0.3 0.5 0.8 0.5 1.3h2.3l0 0c0-1-0.4-1.8-1.2-2.5 -0.8-0.7-1.9-1-3.1-1 -1.3 0-2.3 0.3-3.1 0.9 -0.8 0.6-1.2 1.4-1.2 2.4 0 1 0.4 1.7 1.1 2.3 0.7 0.6 1.8 1 3.2 1.4 0.8 0.2 1.4 0.5 1.7 0.8 0.3 0.3 0.5 0.6 0.5 1.1 0 0.4-0.2 0.8-0.5 1.1 -0.3 0.3-0.8 0.4-1.5 0.4 -0.8 0-1.4-0.2-1.8-0.5 -0.4-0.3-0.6-0.8-0.6-1.5h-2.3l0 0c0 1.2 0.4 2.1 1.4 2.8 1 0.7 2.1 1 3.3 1 1.3 0 2.3-0.3 3.1-0.9 0.8-0.6 1.2-1.4 1.2-2.4C46.6 28.4 46.3 27.6 45.6 27z" fill="#0073a7"/></svg>