<svg xmlns="http://www.w3.org/2000/svg" width="60" height="60" viewBox="0 0 60 60"><path d="M33 9.1h-2.2v2.3h2.3V9.1zM53.5 25.4l-5.5-7.3H36v-3h3c1.7 0 3-1.3 3-3v-3c0-1.7-1.3-3-3-3H21c-1.7 0-3 1.3-3 3v3c0 1.7 1.3 3 3 3h3v3H12l-5.5 7.3c-

0.9 1.4-0.5 3.2 0.8 4.2 0.5 0.3 1.1 0.5 1.7 0.5 1 0 1.9-0.5 2.5-1.3l0.6-1c0.3 1.3 1.5 2.3 2.9 2.3 1.7 0 3-1.3 3-3 0 1.7 1.3 3 3 3 1.7 0 3-1.3 3-3 0 1.7 1.3 3 3 3 1.7 0 3-1.3 3-3 0 1.7 1.3 3 3 3s3-1.3 3-3c0 1.7 1.3 3 3 3s3-1.3 3-3c0 1.7 

1.3 3 3 3 1.4 0 2.5-1 2.9-2.3l0.6 1c0.6 0.9 1.5 1.3 2.5 1.3 0.6 0 1.1-0.2 1.7-0.5C54.1 28.7 54.5 26.8 53.5 25.4zM24 9.1h-2.2v0.8h2.3v2.3h-3v-0.7h2.3v-0.7h-2.2V8.3h3V9.1zM26.3 10.6v1.5h-0.7V8.3h0.8v1.5h1.5V8.3h0.8v3.7h-0.7v-1.5H26.3zM33 

18.1H27v-3h6V18.1zM33.8 12.1h-3.7V8.3h3.8V12.1zM35.3 12.1V8.3h3.8v2.2h-3v1.5H35.3zM38.3 9.1h-2.3v0.8h2.3V9.1z" fill="#0073a7"></path><path d="M18 40.6c0.8 0 1.5-0.7 1.5-1.5 0-0.8-0.7-1.5-1.5-1.5 -0.8 0-1.5 0.7-1.5 1.5C16.5 39.9 17.2 40.6 18 

40.6zM49.5 49.6H10.5c-2.5 0-4.5 2-4.5 4.5h48C54 51.6 52 49.6 49.5 49.6zM48 31.6H12v16.5h36V31.6zM24 45.1h-9v-10.5h9V45.1zM45 45.1H27v-10.5h18V45.1z" fill="#777777"></path></svg>