<svg xmlns="http://www.w3.org/2000/svg" width="60" height="60" viewBox="0 0 60 60"><path d="M49.1 6H10.9c-1.2 0-2.2 1-2.2 2.2 0 0.8 0.4 1.5 1.1 1.9v25.2c0.6-0.5 1.3-1.2 2.2-2V10.4h36v24.1H19.8c-0.7 0.8-1.4 1.5-2 2.2h1.9L15.8 51.4c-0.3 1.2 0.4 2.4 1.5 2.7 1.2 0.3 2.4-0.4 2.7-1.6l3.9-14.8h11.9l3.9 14.8c0.3 1 1.1 1.6 2.1 1.6 0.2 0 0.4 0 0.6-0.1 1.2-0.3 1.9-1.5 1.5-2.7l-3.9-14.8h8.9c0.6 0 1.1-0.5 1.1-1.1V10.1c0.7-0.4 1.1-1.1 1.1-1.9C51.2 7 50.3 6 49.1 6zM24 25.9c-0.2-0.2-0.5-0.2-0.8 0 0 0-14.6 13.4-14.7 13.5 -0.6 0.6-0.6 1.5 0 2 0.6 0.6 1.5 0.6 2 0 0.1-0.1 13.4-14.7 13.4-14.7C24.2 26.5 24.2 26.1 24 25.9z" fill="#777777"/><path d="M29.4 20c-1.2 0-2.2 1-2.2 2.2v8.2c0 1.2 1 2.2 2.2 2.2s2.2-1 2.2-2.2v-8.2C31.6 20.9 30.6 20 29.4 20zM36.5 12.3c-1.2 0-2.2 1-2.2 2.2v15.9c0 1.2 1 2.2 2.2 2.2s2.2-1 2.2-2.2V14.5C38.7 13.3 37.7 12.3 36.5 12.3zM43.6 16.7c-1.2 0-2.2 1-2.2 2.2v11.5c0 1.2 1 2.2 2.2 2.2s2.2-1 2.2-2.2V18.9C45.8 17.6 44.8 16.7 43.6 16.7z" fill="#0073a7"/></svg>