<svg xmlns="http://www.w3.org/2000/svg" width="60" height="60" viewBox="0 0 60 60"><path d="M39.2 5.9H15.2c-1.6 0-2.9 1.3-2.9 3v42.3c0 1.6 1.3 3 2.9 3h29.4c1.6 0 2.9-1.3 2.9-3V15L39.2 5.9zM39.8 10.3l3.6 4h-3.6V10.3zM45 51.1c0 0.3-0.2 0.5-0.5 0.5H15.2c-0.3 0-0.5-0.2-0.5-0.5V8.9c0-0.3 0.2-0.5 0.5-0.5h22.2v7.2c0 0.7 0.6 1.2 1.2 1.2h6.4V51.1zM34.4 18.4H18.8c-0.4 0-0.7 0.4-0.7 0.9 0 0.5 0.3 0.9 0.7 0.9h15.6c0.4 0 0.7-0.4 0.7-0.9C35.1 18.9 34.8 18.4 34.4 18.4zM34.4 12.2H18.8c-0.4 0-0.7 0.4-0.7 0.9 0 0.5 0.3 0.9 0.7 0.9h15.6c0.4 0 0.7-0.4 0.7-0.9C35.1 12.6 34.8 12.2 34.4 12.2z" fill="#777777"/><path d="M40.7 33c-0.1-0.4-0.4-0.6-0.8-0.5l-2.3 0.4c-0.3-0.7-0.6-1.3-1.1-1.8l1.5-1.8c0.1-0.1 0.2-0.3 0.1-0.5 0-0.2-0.1-0.3-0.2-0.4l-2-1.7c-0.1-0.1-0.3-0.2-0.5-0.1 -0.2 0-0.3 0.1-0.4 0.2l-1.5 1.8c-0.6-0.3-1.3-0.6-2-0.7v-2.4c0-0.4-0.3-0.6-0.6-0.6h-2.7c-0.4 0-0.6 0.3-0.6 0.6v2.4c-0.7 0.2-1.4 0.4-2 0.7l-1.5-1.8c-0.2-0.3-0.6-0.3-0.9-0.1L21.1 28.3c-0.1 0.1-0.2 0.3-0.2 0.4 0 0.2 0 0.3 0.1 0.5l1.5 1.8c-0.4 0.6-0.8 1.2-1.1 1.8l-2.3-0.4c-0.4-0.1-0.7 0.2-0.8 0.5l-0.5 2.6c0 0.2 0 0.3 0.1 0.5 0.1 0.1 0.2 0.2 0.4 0.3l2.3 0.4c0 0.7 0.2 1.4 0.4 2.1l-2 1.2c-0.1 0.1-0.3 0.2-0.3 0.4 0 0.2 0 0.3 0.1 0.5l1.3 2.3c0.1 0.2 0.2 0.3 0.4 0.3 0.1 0 0.1 0 0.2 0 0.1 0 0.2 0 0.3-0.1l2.1-1.2c0.5 0.5 1 1 1.6 1.4l-0.8 2.2c-0.1 0.2-0.1 0.3 0 0.5 0.1 0.2 0.2 0.3 0.4 0.3l2.5 0.9c0.1 0 0.1 0 0.2 0 0.1 0 0.2 0 0.3-0.1 0.2-0.1 0.3-0.2 0.3-0.4l0.8-2.2c0.3 0 0.7 0.1 1.1 0.1 0.4 0 0.7 0 1.1-0.1l0.8 2.2c0.1 0.2 0.2 0.3 0.3 0.4 0.1 0 0.2 0.1 0.3 0.1 0.1 0 0.2 0 0.2 0l2.5-0.9c0.2-0.1 0.3-0.2 0.4-0.3 0.1-0.2 0.1-0.3 0-0.5l-0.8-2.2c0.6-0.4 1.1-0.8 1.6-1.4l2.1 1.2c0.1 0.1 0.2 0.1 0.3 0.1 0.1 0 0.1 0 0.2 0 0.2 0 0.3-0.2 0.4-0.3l1.3-2.3c0.1-0.1 0.1-0.3 0.1-0.5 0-0.2-0.2-0.3-0.3-0.4l-2.1-1.2c0.2-0.7 0.3-1.4 0.4-2.1l2.3-0.4c0.2 0 0.3-0.1 0.4-0.3 0.1-0.1 0.1-0.3 0.1-0.5L40.7 33zM29.5 39.8c-2 0-3.6-1.6-3.6-3.6s1.6-3.6 3.6-3.6 3.6 1.6 3.6 3.6S31.5 39.8 29.5 39.8z" fill="#0073a7"/></svg>