<svg xmlns="http://www.w3.org/2000/svg" width="60" height="60" viewBox="0 0 60 60"><path d="M14.6 15.1H6.1v3h6.5l10.5 24h25v-3H25.1L14.6 15.1zM28.6 45.1c-2.5 0-4.5 2-4.5 4.5s2 4.5 4.5 4.5c2.5 0 4.5-2 4.5-4.5S31.1 45.1 28.6 45.1zM43.6 45.1c-2.5 0-4.5 2-4.5 4.5s2 4.5 4.5 4.5 4.5-2 4.5-4.5S46.1 45.1 43.6 45.1zM43.6 30.1c-5.9 0-10.8-3.8-12.7-9h-9.8l6 15h21l3.5-8.7C49.3 29.1 46.6 30.1 43.6 30.1z" fill="#777777"/><path d="M43.6 6.1c-5.8 0-10.5 4.7-10.5 10.5s4.7 10.5 10.5 10.5 10.5-4.7 10.5-10.5S49.4 6.1 43.6 6.1zM42 21.9l-2.1-2.1L36.7 16.6l2.1-2.1 3.2 3.2 6.4-6.4 2.1 2.1L42 21.9z" fill="#0073a7"/></svg>