<svg xmlns="http://www.w3.org/2000/svg" width="60" height="60" viewBox="0 0 60 60"><path d="M48.5 19.7h-36.6v28.2h36.6V19.7zM24.1 44.8h-9.2V22.7h9.2V44.8zM45.5 44.8H27.2V22.7h18.3V44.8zM50.1 49.4H10.4c-2.5 0-4.6 2.1-4.6 4.6h48.9C54.7 51.5 52.6 49.4 50.1 49.4zM18 35.5c0.8 0 1.5-0.7 1.5-1.5 0-0.8-0.7-1.5-1.5-1.5 -0.8 0-1.5 0.7-1.5 1.5C16.5 34.8 17.2 35.5 18 35.5z" fill="#777777"/><path d="M37.2 39.8l-1.1 0.7 -1.1-0.7 0-10.1 -2.5 1.6 0 8.9 3.7 2.3 3.7-2.3 0-8.9 -2.5-1.5L37.2 39.8zM36.1 24.1l-7.8 4.8 0 8.7 2.1 1.3 0-8.7 5.7-3.5 5.7 3.5 0 8.7 2.1-1.2 0-8.7L36.1 24.1z" fill="#EF662F"/><path d="M54.1 14.3l-5.6-7.5h-36.6l-5.6 7.5c-0.9 1.4-0.6 3.3 0.8 4.2 0.5 0.3 1.1 0.5 1.7 0.5 1 0 2-0.5 2.5-1.4l0.7-1c0.3 1.3 1.5 2.3 2.9 2.3 1.7 0 3.1-1.4 3.1-3.1 0 1.7 1.4 3.1 3.1 3.1 1.7 0 3.1-1.4 3.1-3.1 0 1.7 1.4 3.1 3.1 3.1s3.1-1.4 3.1-3.1c0 1.7 1.4 3.1 3.1 3.1s3.1-1.4 3.1-3.1c0 1.7 1.4 3.1 3.1 3.1s3.1-1.4 3.1-3.1c0 1.7 1.4 3.1 3.1 3.1 1.4 0 2.6-1 2.9-2.3l0.7 1c0.6 0.9 1.6 1.4 2.5 1.4 0.6 0 1.2-0.2 1.7-0.5C54.7 17.6 55.1 15.7 54.1 14.3z" fill="#0073a7"/></svg>